<svg xmlns="http://www.w3.org/2000/svg" viewBox="0 0 550.53 566.82"><defs><style>.cls-1,.cls-2{fill:#fff;}.cls-1,.cls-4{stroke:#000;stroke-linecap:round;stroke-linejoin:round;stroke-width:5px;}.cls-3{fill:#e56d32;}.cls-4{fill:none;}</style></defs><g id="레이어_2" data-name="레이어 2"><g id="레이어_1-2" data-name="레이어 1"><path class="cls-1" d="M274.9,424.45c-3.18,34.49-15.23,68.55-11.37,101.91a49,49,0,0,0-27.88,11.28c-3.05,2.56-5.88,5.66-7,9.49s0,8.51,3.35,10.63c4.62,2.89,10.48,0,15.56-2a44.4,44.4,0,0,1,21.13-2.72c3.69.43,7.93,1.17,10.69-1.3,2-1.83,2.5-4.78,2.84-7.5q6.9-54.75,13.78-109.52c.26-2.06.49-4.29-.52-6.11-.92-1.66-2.68-2.64-4.35-3.53C285.66,422.17,275.42,418.82,274.9,424.45Z"/><path class="cls-1" d="M315.66,429.79c-3.18,34.5-15.23,68.55-11.37,101.92A49,49,0,0,0,276.41,543c-3.05,2.56-5.88,5.66-7,9.49s0,8.51,3.35,10.63c4.62,2.89,10.48,0,15.56-2a44.28,44.28,0,0,1,21.13-2.72c3.69.43,7.93,1.16,10.69-1.31,2-1.82,2.5-4.78,2.85-7.49l13.77-109.52c.26-2.07.49-4.3-.52-6.12-.92-1.66-2.68-2.63-4.35-3.53C326.42,427.51,316.18,424.16,315.66,429.79Z"/><path class="cls-2" d="M443.89,317.66c-17.45-24.22-37.8-46.78-62.52-64.31s-54-29.9-85.15-32.53c-20-1.69-40.29.63-59.84,5.73-20.52,5.35-40.69,14-56.06,28.32S155,289.63,157.48,309.5c1.61,12.81,8.12,24.46,15.84,34.87,15.89,21.44,37.17,38.8,60.3,53.07,15.83,9.76,32.86,18.27,51.45,22.13,24.79,5.14,51.27,1.71,75.61-6.6s46.77-21.31,68.06-35.53c5.7-3.8,12-7.89,18.78-7.51a20.9,20.9,0,0,1,10.6,4.09c11.64,8.1,18,23,31.81,27.25,12.42,3.84,26.16-2.6,36.64-10.6,9.24-7.06,17.64-16,20.43-26.88,4.23-16.52-5.33-32.73-15.26-46.37-8.72-12-20.74-24.77-36.26-23.33C476.34,295.86,462.07,318.91,443.89,317.66Z"/><path class="cls-2" d="M279.23,214.13c-.6-5,3.39-9.87,8.22-12.18s10.32-2.64,15.64-2.93c8-.44,16.63-.67,22.83,3.85,3.05,2.22,5.16,5.38,7.78,8,8.11,8.23,20.44,11.19,32.16,13.48s24.07,4.5,33.12,11.78,13.12,21.52,5.19,30.43"/><path class="cls-2" d="M352.07,421.67c9,5.86,19.89,9.59,31,8.77s22.19-6.69,27.48-16.14c3.74-6.67,4.36-14.48,3.61-21.87"/><path class="cls-2" d="M191.88,376.5c-3.72,5.66-7.61,12.14-6.17,18.75a20.39,20.39,0,0,0,4.6,8.44,49.39,49.39,0,0,0,22.3,15.23c3.09,1,6.45,1.74,9.58.83,5.89-1.72,8.68-8.29,10.69-14.09"/><path class="cls-3" d="M205.05,237.7a50.74,50.74,0,0,1,32.86,75.64c-8.16,13.65-22.1,22.61-35.56,31.08-8.49,5.35-19,10.87-28,6.56-5.48-2.6-8.85-8.21-11.32-13.75-8.64-19.34-10.11-42.26-1.8-61.76S188.29,234.09,205.05,237.7Z"/><path class="cls-3" d="M262.64,232.7c1.86,28.21,15.84,31.79,16.19,51.46.55,30.52-23.36,55.65-47.65,74.14-9.24,7-19,13.87-25.51,23.45s-9.23,22.83-3.28,32.8,22.27,13,29.29,3.77c4.23-5.57,4.79-14.33,11.12-17.31,5.59-2.64,11.93,1,17.24,4.2A121.61,121.61,0,0,0,298.84,420c12.37,2.41,27.66,1.63,34.26-9.1,6.44-10.48.81-23.85-3.9-35.21a213,213,0,0,1-14.91-57.54c-1.4-12.25-1.11-26.27,7.83-34.77,7.93-7.54,19.9-8.15,30.59-10.49s22.58-9.14,22.78-20.08c.1-5.21-2.61-10.06-5.74-14.24-9.51-12.68-23.21-21.44-36.61-29.92-6.58-4.17-13.3-8.39-20.84-10.35s-16.18-1.29-22.23,3.61c-7.26,5.87-10,15.21-18.65,18.79C268.67,221.83,262.29,227.35,262.64,232.7Z"/><path class="cls-3" d="M403.75,244.53c-2.58,16.59-16.11,28.86-26.5,42-28.71,36.42-35.42,88.9-16.8,131.37,1.23,2.81,2.62,5.65,4.91,7.68,2.57,2.29,6,3.32,9.46,3.76,17.93,2.33,36.31-12.11,38.31-30.08,1-9.09-1.65-18.13-4.09-26.94-5.43-19.57-10-39.93-7.26-60.05,2.62-19.38,11.9-38.35,8.72-57.64-.63-3.8-2.25-8.08-5.93-9.2S396.72,249.82,403.75,244.53Z"/><path class="cls-3" d="M467.21,311c-10.68,1.19-19.06,10.86-21.28,21.37s.71,21.52,5.38,31.19a90.15,90.15,0,0,0,44,42.7c3,1.32,6.25,2.5,9.39,1.69,2.77-.72,4.92-2.87,6.92-4.92l22.84-23.49c3.77-3.88,7.64-7.91,9.6-12.95,3.44-8.84.35-18.75-3-27.63-3.8-10.15-8-20.36-15-28.66S509,295.73,498.21,296c-9.11.2-17.46,4.82-25.38,9.32C465.92,309.21,459,313.13,467.21,311Z"/><path class="cls-4" d="M443.89,317.66c-17.45-24.22-37.8-46.78-62.52-64.31s-54-29.9-85.15-32.53c-20-1.69-40.29.63-59.84,5.73-20.52,5.35-40.69,14-56.06,28.32S155,289.63,157.48,309.5c1.61,12.81,8.12,24.46,15.84,34.87,15.89,21.44,37.17,38.8,60.3,53.07,15.83,9.76,32.86,18.27,51.45,22.13,24.79,5.14,51.27,1.71,75.61-6.6s46.77-21.31,68.06-35.53c5.7-3.8,12-7.89,18.78-7.51a20.9,20.9,0,0,1,10.6,4.09c11.64,8.1,18,23,31.81,27.25,12.42,3.84,26.16-2.6,36.64-10.6,9.24-7.06,17.64-16,20.43-26.88,4.23-16.52-5.33-32.73-15.26-46.37-8.72-12-20.74-24.77-36.26-23.33C476.34,295.86,462.07,318.91,443.89,317.66Z"/><path class="cls-4" d="M279.23,214.13c-.6-5,3.39-9.87,8.22-12.18s10.32-2.64,15.64-2.93c8-.44,16.63-.67,22.83,3.85,3.05,2.22,5.16,5.38,7.78,8,8.11,8.23,20.44,11.19,32.16,13.48s24.07,4.5,33.12,11.78,13.12,21.52,5.19,30.43"/><path class="cls-4" d="M352.07,421.67c9,5.86,19.89,9.59,31,8.77s22.19-6.69,27.48-16.14c3.74-6.67,4.36-14.48,3.61-21.87"/><path class="cls-4" d="M277.94,323.24c-9.18-9.56-17.69-22.07-15.44-34.6a26,26,0,0,1,4.8-10.75c6.91-9.39,19.19-14.43,31.16-12.78a38.34,38.34,0,0,1,28.51,21,23.28,23.28,0,0,1,2.61,11.29c-.47,7.67-6.12,13.58-9.28,20.43"/><path class="cls-4" d="M191.88,376.5c-3.72,5.66-7.61,12.14-6.17,18.75a20.39,20.39,0,0,0,4.6,8.44,49.39,49.39,0,0,0,22.3,15.23c3.09,1,6.45,1.74,9.58.83,5.89-1.72,8.68-8.29,10.69-14.09"/><path class="cls-4" d="M270.57,285.1l4,5.21"/><path class="cls-4" d="M278.09,275l6.17,8.62"/><path class="cls-4" d="M286.91,271.88,292,281.94"/><path class="cls-4" d="M298.63,270.92,303,281.37"/><path class="cls-4" d="M314.85,274.46l-1.05,7.75"/><path class="cls-4" d="M518,311.84l-7.62,6.49"/><path class="cls-4" d="M524.78,323.08A39,39,0,0,1,515,329.6"/><path class="cls-4" d="M529.63,338.43l-10.47-.81"/><path class="cls-4" d="M538.09,354.51a35.62,35.62,0,0,1-16.11-2"/><path class="cls-4" d="M537.3,369,521,365.07"/><path class="cls-4" d="M526.37,380.77A40.37,40.37,0,0,0,512,373.45"/><path class="cls-4" d="M513.53,392.76a67.39,67.39,0,0,1-14.17-5.49"/><path class="cls-4" d="M404.78,414.48l-7.2-3.72"/><path class="cls-4" d="M397.49,419.39l-6.05-3.22"/><path class="cls-4" d="M384.59,426.65,380.16,419"/><path class="cls-4" d="M217.8,410.53a42.82,42.82,0,0,0,2.54-9C219.46,401.59,218.68,402.4,217.8,410.53Z"/><path class="cls-4" d="M212.16,408.92v-8.86"/><path class="cls-4" d="M198,400.32a19.36,19.36,0,0,0,8.37-8.61"/><path class="cls-4" d="M402.32,253l-5.64,1.21"/><path class="cls-4" d="M395.46,245.69l-7.25.81"/><path class="cls-4" d="M386.61,236.88l-4,4"/><path class="cls-4" d="M304.38,204.26a17.28,17.28,0,0,1-.24,6.87"/><path class="cls-4" d="M292.33,207.07l2.82,6"/><path class="cls-4" d="M314.89,207.88l-1.61,6"/><path class="cls-4" d="M226.82,260.58s-7-4-21,1"/><path class="cls-1" d="M248.82,155.58l-3,44-39-25s-194.09,63.82-204-59c-10-124,215-139,266-79C322.23,99.41,248.82,155.58,248.82,155.58Z"/><path d="M74.66,112.87a1.62,1.62,0,0,1-1,1.73c-1,.21-2.26.57-2.72.71-1.55.41-5.8,1.68-10.71,3.1-1,.29-1.6.18-2-.44a2.44,2.44,0,0,1-.32-.92l-.27-1.25c-.63-3-2.05-9.46-2.84-12.41a10.39,10.39,0,0,0-.77-1.85c-.36-.74.14-1.1,1-1.11a5.85,5.85,0,0,1,1.39.16c1,.11,1.16,1.81,1.28,2.39.63,3.11,2,9.43,2.8,12.38,0,.16.23.11.31.1,4.32-1.29,8.37-2.52,12.25-3.76A1.19,1.19,0,0,1,74.66,112.87Zm7.64,10.44c.07.52.19,1.27.21,1.92s-.27,1.46-.81,1.61c-.82.22-1.42-.52-1.64-1.7-1-5.82-5.55-26.65-7-33.1a2.48,2.48,0,0,0-.39-.86c-.14-.3-.37-.62-.57-1-.48-.76,0-1.11.82-1.2a5.14,5.14,0,0,1,1.45.06c.89.14,1.29,1.25,1.52,2.34l2.53,11.86c3.68-1,6-1.82,6.44-1.9,1.1-.28,1.58.65,1.65,1.37s-.24,1.73-1,1.78a14.91,14.91,0,0,0-2.74.46l-3.74.92C80.4,113,81.84,120.37,82.3,123.31Z"/><path d="M123.47,98.86c-4.75,1-8.43-1.61-9.27-5.58s1.56-7.88,6.19-8.87S128.82,86,129.67,90,128.22,97.85,123.47,98.86ZM121,87c-2.95.63-4.59,2.78-4,5.65s2.9,4.18,5.92,3.54,4.58-2.78,4-5.65S123.9,86.41,121,87Zm14.5,18-1,1.56c3.31.9,7.35,1.92,10.15,2.72a1.5,1.5,0,0,1,1.12,2c-.31,1-1.26,1-2.09.78-1.85-.59-6.64-1.91-10.89-3a33,33,0,0,1-7.1,7.55,1.62,1.62,0,0,1-1.82.14,1.27,1.27,0,0,1-.11-2.07,31.15,31.15,0,0,0,8.35-10l-4.14,1c-.89.23-1.89.56-2.59.71a2.17,2.17,0,0,1-2.2-.88c-.45-.73-.21-1.56.93-1.8,6.28-1.34,9.7-2.23,13.75-3.26.35-.07,2-.58,2.31-.7a1.61,1.61,0,0,1,2.22.76,1.44,1.44,0,0,1-1,1.9l-5.62,1.36A1.65,1.65,0,0,1,135.46,105.05Zm5.31-9.75c.07.52.19,1.27.21,1.92s-.27,1.46-.81,1.61c-.81.22-1.42-.52-1.63-1.7-1-5.86-2.39-11.77-3.88-18.22a3,3,0,0,0-.39-.86c-.15-.3-.38-.62-.57-1-.49-.76,0-1.11.81-1.2A5.49,5.49,0,0,1,136,76c.89.14,1.29,1.25,1.52,2.35C138.82,84.38,140,89.89,140.77,95.3Z"/><path d="M165,95.47a85.22,85.22,0,0,0-7.63-5.56A32.57,32.57,0,0,1,152.11,100c-.52.61-1.23.76-1.64.19a1.77,1.77,0,0,1,.16-1.93,33.45,33.45,0,0,0,5.18-16l-3.54.88c-.9.23-1.9.57-2.6.72a2.21,2.21,0,0,1-2.2-.89c-.44-.72-.21-1.55.93-1.8,6.28-1.33,9.08-2.09,13.13-3.12.35-.07,2-.58,2.31-.7a1.6,1.6,0,0,1,2.21.76,1.44,1.44,0,0,1-1,1.9l-6.36,1.56a2.47,2.47,0,0,1,.25,1.54,34.9,34.9,0,0,1-.79,4.19,84.65,84.65,0,0,1,8.46,5.43,2,2,0,0,1,.91,1.73C167.39,95.38,166.42,96.61,165,95.47Zm13.46,7.35a19.33,19.33,0,0,1,.21,1.93c0,.78-.27,1.45-.81,1.6-.81.22-1.42-.51-1.63-1.7-1-5.81-5.55-26.65-7-33.1a3.17,3.17,0,0,0-.39-.86c-.15-.3-.38-.62-.57-1-.49-.75,0-1.11.81-1.2a6,6,0,0,1,1.45.06c.89.14,1.29,1.25,1.53,2.35C173.37,77,177.68,97.45,178.49,102.82Z"/><path d="M199.56,88a13.8,13.8,0,0,1-1.81.55l-8.23,2.25a1.39,1.39,0,0,1-1,1.12c-1,.22-1.68-1.12-2-2.21l-3.45-13.51a4.75,4.75,0,0,0-.37-.78l-.56-1.08c-.36-.74.14-1.09,1-1.1a5.8,5.8,0,0,1,1.38.15,1.36,1.36,0,0,1,.74.58h.08c.86-.23,4.85-1.53,9.85-2.92a2.47,2.47,0,0,1,2.73,1.84l1.76,12.31a1.15,1.15,0,0,1,1.05.88A1.56,1.56,0,0,1,199.56,88Zm-10.44.13c.81-.25,3.26-.9,7.74-2.18l-1.68-12c0-.15-.36-.13-.47-.1a56.47,56.47,0,0,0-7.83,2.57,2,2,0,0,1-.72.11Zm22.75,7.55a17.15,17.15,0,0,1,.2,1.93c0,.78-.26,1.45-.81,1.61-.81.21-1.42-.52-1.63-1.71-1-5.81-5.55-26.64-7-33.1a3.17,3.17,0,0,0-.39-.86c-.14-.3-.38-.62-.57-.94-.49-.76,0-1.11.81-1.2a5.09,5.09,0,0,1,1.45.06c.89.14,1.29,1.24,1.53,2.34l2.52,11.86c3.69-1,6.06-1.82,6.45-1.91,1.09-.27,1.58.65,1.65,1.37S215.78,76.9,215,77a14.75,14.75,0,0,0-2.73.46l-3.75.92C210,85.44,211.41,92.77,211.87,95.71Z"/><path d="M226,82a1.34,1.34,0,1,1-2.63.56c-1-4.75-3.29-14.65-4.4-20-.2-.94.71-1.5,1.46-1.66s1.76,0,1.92.94C223.23,67.19,225,77.23,226,82Zm.82,10.21a2.11,2.11,0,0,1-2.54-1.68,2.13,2.13,0,0,1,4.17-.88A2.1,2.1,0,0,1,226.77,92.25Z"/><path d="M239.61,79.13a1.34,1.34,0,1,1-2.63.56c-1-4.75-3.29-14.65-4.39-20-.2-.94.7-1.5,1.45-1.66s1.76,0,1.92.94C236.9,64.28,238.71,74.32,239.61,79.13Zm.82,10.21a2.1,2.1,0,0,1-2.53-1.68,2.13,2.13,0,0,1,4.16-.88A2.1,2.1,0,0,1,240.43,89.34Z"/></g></g></svg>