<svg xmlns="http://www.w3.org/2000/svg" viewBox="0 0 932.04 1098.11"><defs><style>.cls-1{fill:#fff;}.cls-1,.cls-2,.cls-3,.cls-4,.cls-5{stroke:#000;stroke-linecap:round;stroke-linejoin:round;stroke-width:5px;}.cls-2{fill:#ededed;}.cls-3{fill:#a4d0ff;}.cls-4{fill:none;}.cls-5{fill:#ffb26c;}</style></defs><g id="레이어_2" data-name="레이어 2"><g id="레이어_1-2" data-name="레이어 1"><path class="cls-1" d="M60.68,782.51A1288.32,1288.32,0,0,0,2.5,1015.85l350.92,78.08c6.73,1.49,14.1,2.93,20.24-.08,5.59-2.73,8.8-8.5,11.6-14a665.31,665.31,0,0,0,70.59-245.82c-114.51-25.34-224.34-74.72-341.33-82.51-12.15-.81-24.84-1.07-35.85,3.92S64.12,772.7,60.68,782.51Z"/><path class="cls-2" d="M68.18,765.39l118.66,166.1c9.85,13.81,19.85,27.88,25.12,43.89,73.9-41.89,162.93-52,238.22-91.51"/><path class="cls-2" d="M106.2,793.61c-11.15-4.9-22.52-10.55-30-20.07a24.45,24.45,0,0,1-4.92-13.33q-.06-.68-.09-1.35l180.12-91.37c15.12-7.68,30.5-15.53,42.57-27.28h0c29.31,45.31,70,82.09,108.13,120.8,17.43,17.67,34.33,35.75,49.42,55.22L464.65,831Q456.72,855,447,878.4C333.72,847.88,213.51,840.84,106.2,793.61Z"/><path class="cls-1" d="M203.08,869.06a6492,6492,0,0,0,726.46,7.3c-1.32-40-18-77.89-24.73-117.38-5.32-31.05-4.48-62.79-3.61-94.29l4-147.93c1.47-54,3-108,.93-162-1.83-48.77-6.52-97.43-7.17-146.24A885.56,885.56,0,0,1,916.51,21.25C835.37,22,754.86,7.69,673.81,3.78c-46.31-2.24-92.72-1.09-139.07.07L221.56,11.69c7.77,67.49,1.65,135.69-1.18,203.58A2095.93,2095.93,0,0,0,223,438.62c6.38,98,19.59,197,2.06,293.63C216.87,777.36,202,821.73,203.08,869.06Z"/><path class="cls-3" d="M786.54,920.63s-58.77-30.66-28.3-87.21,116.09-13.57,98.84,31.83c0,0,37.75,15.48,31.55,22.77s-86,66.34-86,66.34Z"/><line class="cls-4" x1="813.13" y1="922.89" x2="822.89" y2="939.34"/><line class="cls-4" x1="833" y1="912.3" x2="845.54" y2="922.3"/><line class="cls-4" x1="856.66" y1="896.46" x2="865.98" y2="905.06"/><path class="cls-5" d="M245.88,107.16s43.51,28.32,47.45,43.28-51,.49-54.43.8c0,0,.69,34.86-3.44,45.46s-28.61-23.74-31.1-41.4c0,0-55.16,20.46-52.88,8.32s26.71-42.51,32.46-44.75c0,0-40.15-38-32.49-47.23s56.08,16.94,60.46,18.23c0,0,24.88-34.67,41-35.32S245.88,107.16,245.88,107.16Z"/></g></g></svg>